<?xml version="1.0" encoding="utf-8"?>
<!-- Generator: Adobe Illustrator 23.0.6, SVG Export Plug-In . SVG Version: 6.00 Build 0)  -->
<svg version="1.1" id="Capa_1" xmlns="http://www.w3.org/2000/svg" xmlns:xlink="http://www.w3.org/1999/xlink" x="0px" y="0px"
	 viewBox="0 0 464.6 52.3" style="enable-background:new 0 0 464.6 52.3;" xml:space="preserve">
<style type="text/css">
	.st0{fill:#121314;}
</style>
<path class="st0" d="M32.1,24.3l5,7.7l8.7-13.4V50h8.5V2.6h-8.6L32.1,24.3z"/>
<path class="st0" d="M1.6,2.6V50h8.4V18.6l17.8,27.8l5-7.7L10.1,2.6H1.6z"/>
<path class="st0" d="M85.8,2.6l-0.2,0l12.1,24.8H82.7l3.7-7.1l-4.8-9.4L61.2,50h9.7l7.6-14.6h23.5l7.6,14.6l9.7,0L94.6,2.6H85.8z"/>
<path class="st0" d="M163.6,25.1l8.5,8V2.6h-8.5V25.1z"/>
<path class="st0" d="M125,2.6V50h8.5V15.4L165.7,50h6.5v-6L133.4,2.6H125z"/>
<path class="st0" d="M211.1,9.8c6.6,0,12.8,2.4,16.6,6.3l6.4-5.9c-5.6-5.2-13.2-8.7-22.9-8.7c-15.4,0-29.3,9.7-29.5,22.5h9.4
	C192.9,15.7,200.7,9.8,211.1,9.8z"/>
<path class="st0" d="M210.2,32.1h16.9v3.4c0,4-6,5.8-9.6,6.6c-2.1,0.4-4.3,0.7-6.5,0.7h-0.8c-8.8-0.2-15.3-4.7-18.5-10.9h-9.4
	c3.1,11.6,14.8,19.1,28.4,19.1c3.4,0,6.7-0.3,10-1.1c6.9-1.7,15.1-6.2,15.1-13.3V23.8h-25.7L210.2,32.1z"/>
<path class="st0" d="M301.9,25.7c0-14.2-13.5-24.6-28.9-24.6h-0.1c-15.4,0-28.9,10.4-28.9,24.6c0,12.9,10.9,23.3,24.8,25.2v-8.5
	c-9-2-15.8-8-15.8-16.2c0-9.5,8.7-16.9,19.8-16.9h0.3c11.1,0,19.8,7.4,19.8,16.9c0,8.2-6.8,14.3-15.9,16.2v8.5
	C290.9,49.1,301.9,38.7,301.9,25.7z"/>
<path class="st0" d="M316.8,32.7c0.5-1.6,1.4-3,2.4-4.2c1.1-1.2,2.4-2.2,3.9-2.8c3.3-1.4,7.1-1.4,10.4,0c1.5,0.7,2.8,1.6,3.9,2.8
	c1.1,1.2,1.9,2.7,2.4,4.2c0.6,1.7,0.9,3.5,0.9,5.2c0,1.7-0.3,3.5-0.9,5.1c-0.5,1.5-1.4,2.9-2.4,4.2c-1.1,1.2-2.4,2.1-3.9,2.8
	c-3.4,1.3-7.1,1.3-10.5,0c-1.5-0.6-2.8-1.6-3.9-2.8c-1.1-1.2-1.9-2.6-2.4-4.2c-0.6-1.7-0.9-3.4-0.8-5.1
	C315.9,36.2,316.2,34.4,316.8,32.7z M321.9,41.1c0.2,1,0.6,1.9,1.2,2.7c0.5,0.8,1.3,1.5,2.1,1.9c1,0.5,2.1,0.7,3.2,0.7
	c1.1,0,2.2-0.2,3.2-0.7c0.8-0.5,1.6-1.1,2.1-1.9c0.6-0.8,1-1.7,1.2-2.7c0.2-1,0.4-2.1,0.4-3.1c0-1.1-0.1-2.2-0.4-3.2
	c-0.2-1-0.6-1.9-1.2-2.8c-0.5-0.8-1.3-1.5-2.1-1.9c-1-0.5-2.1-0.7-3.2-0.7c-1.1,0-2.2,0.2-3.2,0.7c-0.9,0.5-1.6,1.1-2.1,1.9
	c-0.6,0.8-1,1.8-1.2,2.8c-0.3,1.1-0.4,2.1-0.4,3.2C321.5,39,321.6,40,321.9,41.1z"/>
<path class="st0" d="M364.9,48.5c-1.9,1.7-4.5,2.5-7.9,2.5c-3.4,0-6-0.8-7.9-2.5c-1.9-1.6-2.8-4.2-2.8-7.6V25.2h5.6v15.7
	c0,0.7,0.1,1.4,0.2,2c0.1,0.6,0.4,1.2,0.7,1.7c0.4,0.5,1,1,1.6,1.2c0.9,0.4,1.8,0.5,2.7,0.5c2,0,3.4-0.4,4.1-1.4
	c0.7-0.9,1.1-2.3,1.1-4.2V25.2h5.5v15.7C367.7,44.3,366.8,46.9,364.9,48.5z"/>
<path class="st0" d="M372.3,29.9v-4.7H393v4.7h-7.6v20.6h-5.5V29.9H372.3z"/>
<path class="st0" d="M403.2,25.2v20.6h12.3v4.7h-17.8V25.2H403.2z"/>
<path class="st0" d="M439.2,25.2v4.7h-13.3v5.4h12.2v4.3h-12.2v6.2h13.6v4.7h-19.1V25.2H439.2z"/>
<path class="st0" d="M443,29.9v-4.7h20.7v4.7h-7.6v20.6h-5.5V29.9H443z"/>
</svg>
